<?xml version="1.0" encoding="UTF-8" standalone="no"?>
<!-- Created with Inkscape (http://www.inkscape.org/) -->

<svg
   xmlns:dc="http://purl.org/dc/elements/1.1/"
   xmlns:cc="http://creativecommons.org/ns#"
   xmlns:rdf="http://www.w3.org/1999/02/22-rdf-syntax-ns#"
   xmlns:svg="http://www.w3.org/2000/svg"
   xmlns="http://www.w3.org/2000/svg"
   xmlns:sodipodi="http://sodipodi.sourceforge.net/DTD/sodipodi-0.dtd"
   xmlns:inkscape="http://www.inkscape.org/namespaces/inkscape"
   width="450"
   height="450"
   viewBox="0 0 119.0625 119.0625"
   version="1.1"
   id="svg841"
   inkscape:version="0.92.4 (5da689c313, 2019-01-14)"
   sodipodi:docname="logo.svg">
  <defs
     id="defs835" />
  <sodipodi:namedview
     id="base"
     pagecolor="#ffffff"
     bordercolor="#666666"
     borderopacity="1.0"
     inkscape:pageopacity="0.0"
     inkscape:pageshadow="2"
     inkscape:zoom="0.77726503"
     inkscape:cx="278.17553"
     inkscape:cy="201.34342"
     inkscape:document-units="mm"
     inkscape:current-layer="layer1"
     showgrid="false"
     inkscape:pagecheckerboard="true"
     units="px"
     inkscape:window-width="1024"
     inkscape:window-height="576"
     inkscape:window-x="361"
     inkscape:window-y="301"
     inkscape:window-maximized="0" />
  <metadata
     id="metadata838">
    <rdf:RDF>
      <cc:Work
         rdf:about="">
        <dc:format>image/svg+xml</dc:format>
        <dc:type
           rdf:resource="http://purl.org/dc/dcmitype/StillImage" />
        <dc:title></dc:title>
      </cc:Work>
    </rdf:RDF>
  </metadata>
  <g
     inkscape:label="Layer 1"
     inkscape:groupmode="layer"
     id="layer1"
     transform="translate(0,-177.93748)">
    <g
       transform="matrix(1.0583333,0,0,1.0583333,-29.368747,219.47706)"
       id="start-here-kde"
       style="opacity:0.88043476;stroke-width:0.25">
      <rect
         style="fill:none;fill-rule:evenodd;stroke:none;stroke-width:0.25px;stroke-linecap:butt;stroke-linejoin:miter;stroke-opacity:1"
         id="rect3343"
         width="32"
         height="32"
         x="68"
         y="1" />
      <path
         style="color:#31363b;fill:#15171b;fill-opacity:1;stroke-width:0.25"
         d="m 43,5 c -3,0 -5,2 -5,5 3,0 5,-2 5,-5 z m -9,5 c -6,0 -7,6.845665 -5,12 0.801459,2.191419 3,6 5,6 2,0 1.999371,-0.960921 3.972656,-0.96875 C 38.962565,27.045167 40,28 42,28 45,28 47,25 47,22 44.26703,20.633515 43.404658,17.866979 44.40625,15.613281 44.870597,14.568446 45.73297,13.633515 47,13 c -0.95834,-1.362222 -3,-3 -4,-3 -1,0 -3.138115,1.152173 -5,1 -1.861885,-0.152173 -3,-1 -4,-1 z"
         transform="translate(46,1)"
         id="path20"
         inkscape:connector-curvature="0"
         sodipodi:nodetypes="cccscscscscsss" />
    </g>
  </g>
</svg>
