<?xml version="1.0" encoding="UTF-8"?>
<!-- Created with Inkscape (http://www.inkscape.org/) -->
<svg width="355" height="310" version="1.0" xmlns="http://www.w3.org/2000/svg" xmlns:cc="http://creativecommons.org/ns#" xmlns:dc="http://purl.org/dc/elements/1.1/" xmlns:rdf="http://www.w3.org/1999/02/22-rdf-syntax-ns#" xmlns:xlink="http://www.w3.org/1999/xlink">
 <defs>
  <linearGradient id="linearGradient4192">
   <stop stop-color="#434343" offset="0"/>
   <stop stop-color="#3d3d3d" offset="1"/>
  </linearGradient>
  <linearGradient id="linearGradient5391">
   <stop stop-opacity=".92169" offset="0"/>
   <stop stop-opacity=".74096" offset=".125"/>
   <stop stop-opacity=".60241" offset=".25"/>
   <stop stop-opacity=".33133" offset=".5"/>
   <stop stop-opacity=".10843" offset=".75"/>
   <stop stop-opacity=".039216" offset=".875"/>
   <stop stop-opacity="0" offset="1"/>
  </linearGradient>
  <linearGradient id="linearGradient5688" x1="398" x2="398" y1="143" y2="220.94" gradientTransform="translate(200,14)" gradientUnits="userSpaceOnUse" xlink:href="#linearGradient5391"/>
  <linearGradient id="linearGradient5785" x1="349.88" x2="279.88" y1="99" y2="98.938" gradientTransform="translate(175.12 14)" gradientUnits="userSpaceOnUse" xlink:href="#linearGradient5391"/>
  <linearGradient id="linearGradient6612" x1="396" x2="396" y1="66" y2="14.938" gradientTransform="translate(200,5)" gradientUnits="userSpaceOnUse" xlink:href="#linearGradient5391"/>
  <linearGradient id="linearGradient5688-2" x1="398" x2="398" y1="143" y2="170.94" gradientTransform="translate(0 139.92)" gradientUnits="userSpaceOnUse" xlink:href="#linearGradient5391-12"/>
  <linearGradient id="linearGradient5391-12">
   <stop offset="0"/>
   <stop stop-opacity=".63855" offset=".25"/>
   <stop stop-opacity=".33735" offset=".5"/>
   <stop stop-opacity=".10843" offset=".75"/>
   <stop stop-opacity=".039216" offset=".875"/>
   <stop stop-opacity="0" offset="1"/>
  </linearGradient>
  <linearGradient id="linearGradient5785-2" x1="349.88" x2="304.88" y1="99" y2="98.938" gradientTransform="translate(175.12 14)" gradientUnits="userSpaceOnUse" xlink:href="#linearGradient5391-12"/>
  <linearGradient id="linearGradient6612-5" x1="396" x2="396" y1="66" y2="29.938" gradientTransform="translate(200,5)" gradientUnits="userSpaceOnUse" xlink:href="#linearGradient5391-12"/>
  <radialGradient id="radialGradient6192-8" cx="296.45" cy="80.417" r="17.5" gradientTransform="matrix(-5.7485e-7 -2.0607 2.5714 -7.5962e-7 398.21 731.89)" gradientUnits="userSpaceOnUse">
   <stop offset="0"/>
   <stop stop-opacity=".63855" offset=".25"/>
   <stop stop-opacity=".33735" offset=".5"/>
   <stop stop-opacity=".10843" offset=".75"/>
   <stop stop-opacity=".039216" offset=".875"/>
   <stop stop-opacity="0" offset="1"/>
  </radialGradient>
  <radialGradient id="radialGradient7795-5" cx="48.271" cy="177.38" r="17.5" gradientTransform="matrix(-3.8857 -.00026521 .00030788 -4.45 297.51 991.4)" gradientUnits="userSpaceOnUse" xlink:href="#linearGradient5391"/>
  <radialGradient id="radialGradient7795-6" cx="48.271" cy="177.38" r="17.5" gradientTransform="matrix(-2.5714 -.0002643 .00016478 -1.5997 594.1 485.83)" gradientUnits="userSpaceOnUse" xlink:href="#linearGradient5391"/>
  <linearGradient id="linearGradient7313" x1="470" x2="470" y1="43" y2="68.133" gradientTransform="matrix(1 0 0 1.0345 -85 131.52)" gradientUnits="userSpaceOnUse" xlink:href="#linearGradient4192"/>
  <radialGradient id="radialGradient1031" cx="296.48" cy="80.417" r="17.5" gradientTransform="matrix(-1.0442e-6 -2.9179 -4 1.2788e-6 576.67 981.08)" gradientUnits="userSpaceOnUse" xlink:href="#linearGradient5391"/>
  <linearGradient id="linearGradient1033" x1="760" x2="760" y1="92" y2="117.13" gradientTransform="matrix(1 0 0 1.0345 -495 -9.1724)" gradientUnits="userSpaceOnUse" xlink:href="#linearGradient4192"/>
 </defs>
 <metadata>
  <rdf:RDF>
   <cc:Work rdf:about="">
    <dc:format>image/svg+xml</dc:format>
    <dc:type rdf:resource="http://purl.org/dc/dcmitype/StillImage"/>
    <dc:title/>
   </cc:Work>
   <cc:Work rdf:about="">
    <dc:format>image/svg+xml</dc:format>
    <dc:type rdf:resource="http://purl.org/dc/dcmitype/StillImage"/>
   </cc:Work>
  </rdf:RDF>
 </metadata>
 <g transform="translate(0,-90)">
  <use id="decoration-right" transform="matrix(-1,0,0,1,365,0)" width="100%" height="100%" xlink:href="#decoration-left"/>
  <g>
   <text x="70.554916" y="-207.8569" fill="#000000" font-family="'Gill Sans'" font-weight="bold" text-align="justify" style="line-height:0%" xml:space="preserve"><tspan x="70.554916" y="-207.8569" font-size="14px" style="line-height:1.25"> </tspan></text>
   <text x="-395.565" y="104.00001" fill="#000000" font-family="'Gill Sans'" font-weight="bold" text-align="justify" style="line-height:0%" xml:space="preserve"><tspan x="-395.565" y="104.00001" font-size="14px" style="line-height:1.25"> </tspan></text>
   <text x="416.03189" y="-270.00696" fill="#ffffff" fill-opacity=".74869" font-family="Arial" style="line-height:0%" xml:space="preserve"><tspan x="416.03189" y="-270.00696" font-size="12px" style="line-height:1"> </tspan></text>
   <text x="461.32416" y="-175.93504" fill="#ffffff" fill-opacity=".74869" font-family="Arial" style="line-height:0%" xml:space="preserve"><tspan x="461.32416" y="-175.93504" font-size="12px" style="line-height:1"> </tspan></text>
  </g>
  <g id="decoration-bottom" transform="translate(-215,9)">
   <path transform="translate(-200,126)" d="m525 164v85h145v-85z" fill="url(#linearGradient5688)" opacity=".85"/>
   <path d="m470 289h-145v1h145z" opacity=".807"/>
   <path transform="translate(0,140)" d="m470 143h-145v6h145z" fill="#242424" opacity=".8"/>
  </g>
  <path id="decoration-center" d="m110 206v86h145v-86z" fill="#3e3e3e"/>
  <g id="decoration-top" transform="translate(-215,5e-5)">
   <path transform="translate(-200,135)" d="m525 5v35h145v-35z" fill="url(#linearGradient6612)" opacity=".85"/>
   <path transform="translate(0,140)" d="m325 35v22h145v-22z" opacity=".803"/>
   <path d="m325 176v30h145v-30z" fill="url(#linearGradient7313)"/>
   <path d="m325 176v1h145v-1z" fill="#fff" opacity=".1"/>
  </g>
  <g id="decoration-left" transform="translate(-239.88 9)">
   <path transform="translate(-175.12 126)" d="m420 71v86h75v-86z" fill="url(#linearGradient5785)" opacity=".85"/>
   <path d="m319.88 197v86h5v-86z" opacity=".854"/>
   <path transform="translate(-255.12 76)" d="m576 121v86h29v-86z" fill="#3e3e3e"/>
  </g>
  <g id="decoration-inactive-bottom" transform="translate(145 9.078)">
   <path d="m325 289.92v85h145v-85z" fill="url(#linearGradient5688-2)" opacity=".85"/>
   <path d="m470 288.92h-145v1h145z" opacity=".807"/>
   <path d="m470 282.92h-145v6h145z" fill="#242424" opacity=".8"/>
  </g>
  <path id="decoration-inactive-center" d="m470 206v86h145v-86z" fill="#3e3e3e"/>
  <g id="decoration-inactive-top" transform="translate(145)">
   <g>
    <path transform="translate(-200,135)" d="m525 5v35h145v-35z" fill="url(#linearGradient6612-5)" opacity=".85"/>
    <path transform="translate(0,140)" d="m325 35v22h145v-22z" opacity=".807"/>
    <path d="m325 176v30h145v-30z" fill="#2d2d2d"/>
   </g>
   <path d="m325 176v1h145v-1z" fill="#fff" fill-opacity=".99492" opacity=".08"/>
  </g>
  <g id="decoration-inactive-left" transform="translate(120.12 8.9845)">
   <path transform="translate(-175.12 126)" d="m420 71.015v86h75v-86z" fill="url(#linearGradient5785-2)" opacity=".85"/>
   <path d="m319.88 197.02v86h5v-86z" opacity=".81"/>
   <path d="m320.88 197.02v86h29v-86z" fill="#3e3e3e"/>
  </g>
  <g id="decoration-inactive-topleft" transform="translate(140,-25.063)">
   <path transform="translate(-275 110.06)" d="m500 55v66h75v-26c0-2.77 2.23-5 5-5h25v-35z" fill="url(#radialGradient6192-8)" opacity=".85"/>
   <g transform="translate(0,1)">
    <g transform="translate(-19,25)">
     <path transform="translate(-256,84.063)" d="m580 90c-2.77 0-5 2.23-5 5v26h1v-9h4v-21h25v-1h-15z" opacity=".814"/>
     <path d="m323.94 175.06c-2.1771 0-3.9375 1.8211-3.9375 4.0733v25.927h29v-30h-25z" fill="#2d2d2d"/>
     <path transform="translate(-121,89.063)" d="m444.94 86c-2.1771 0-3.9375 1.822-3.9375 4.0742v0.86328c0-2.1771 1.7604-3.9375 3.9375-3.9375h0.0625 10 10 5v-1h-5-10-10-0.0625z" fill="#fff" opacity=".08"/>
    </g>
   </g>
  </g>
  <g id="decoration-bottomleft" transform="translate(-385 -4)">
   <g transform="matrix(1 0 0 .99932 165 -10.667)">
    <path transform="matrix(1 0 0 1.0007 220 104.68)" d="m5 202.06v92l105-0.06249v-84.938l-23-0.0625c-3.8569 0-6.9623-3.0889-6.9961-6.9375h-0.003906z" fill="url(#radialGradient7795-5)" opacity=".85"/>
    <g transform="translate(-20,24)"></g>
   </g>
   <path transform="translate(385 93.938)" d="m80.004 202.06c0.03379 3.8486 3.1392 7 6.9961 7l23 1e-5v-1h-23c-3.324 0-6-2.676-6-6z" opacity=".85"/>
   <path transform="translate(385 93.938)" d="m81 202.06c0 3.324 2.676 6 6 6h23v-6z" fill="#242424" opacity=".8"/>
  </g>
  <g id="decoration-inactive-bottomleft">
   <g transform="matrix(1 0 0 .99932 140 -14.604)">
    <path transform="matrix(1 0 0 1.0007 -140 104.68)" d="m365 202v91.937l105 0.0625v-85.062l-23.004 1e-5c-3.8318 0-6.919-3.1113-6.9922-6.9258l-0.00391-0.01172z" fill="url(#radialGradient7795-6)" opacity=".85"/>
    <g transform="translate(-20,24)"></g>
   </g>
   <path d="m440 292.01c0.0338 3.8486 3.1392 7 6.9961 7l23 1e-5v-1h-23c-3.324 0-6-2.676-6-6z" opacity=".85"/>
   <path d="m441 292c0 3.324 2.676 6 6 6h23v-6z" fill="#242424" opacity=".8"/>
  </g>
  <g fill="#f0f">
   <rect id="shadow-hint-top-margin" x="174" y="140" width="4" height="36"/>
   <rect id="shadow-hint-bottom-margin" x="175" y="298" width="4" height="86"/>
   <rect id="shadow-hint-right-margin" x="284" y="236" width="76" height="4"/>
   <rect id="shadow-hint-left-margin" x="5" y="230" width="76" height="4"/>
  </g>
  <g fill="#00ff29">
   <rect id="hint-top-margin" x="186" y="140" width="4" height="66"/>
   <rect id="hint-bottom-margin" x="187" y="292" width="4" height="92"/>
   <rect id="hint-right-margin" transform="rotate(90)" x="225" y="-360" width="4" height="105"/>
   <rect id="hint-left-margin" transform="rotate(90)" x="222" y="-110" width="4" height="104.88"/>
  </g>
  <g id="decoration-topleft" transform="matrix(-1 0 0 1 535 -25.062)">
   <path transform="translate(170 115.06)" d="m255 50v35h23c3.878 0 7 3.122 7 7v24h75v-66z" fill="url(#radialGradient1031)" opacity=".85"/>
   <g transform="translate(250)">
    <g transform="matrix(-1,0,0,1,524,26)">
     <path transform="matrix(-1 0 0 1 604 89.062)" d="m255 85v31h30v-24c0-3.878-3.122-7-7-7h-3z" opacity=".8"/>
     <path transform="matrix(-1 0 0 1 604 89.062)" d="m255 86v30h29v-24c0-3.324-2.676-6-6-6z" fill="url(#linearGradient1033)"/>
     <path transform="translate(239 89.062)" d="m87 86c-3.324 0-6 2.676-6 6v0.80078c0-3.2132 2.676-5.8008 6-5.8008h23v-1z" fill="#fff" opacity=".1"/>
    </g>
   </g>
  </g>
  <use id="decoration-topright" transform="matrix(-1,0,0,1,365,0)" width="100%" height="100%" xlink:href="#decoration-topleft"/>
  <use id="decoration-bottomright" transform="matrix(-1,0,0,1,365,0)" width="100%" height="100%" xlink:href="#decoration-bottomleft"/>
  <use id="decoration-inactive-topright" transform="matrix(-1,0,0,1,1085,0)" width="100%" height="100%" xlink:href="#decoration-inactive-topleft"/>
  <use id="decoration-inactive-right" transform="matrix(-1,0,0,1,1085,0)" width="100%" height="100%" xlink:href="#decoration-inactive-left"/>
  <use id="decoration-inactive-bottomright" transform="matrix(-1,0,0,1,1085,0)" width="100%" height="100%" xlink:href="#decoration-inactive-bottomleft"/>
 </g>
</svg>
