<svg version="1.1" viewBox="0 0 54 32" xmlns="http://www.w3.org/2000/svg">
 <defs>
  <style id="current-color-scheme" type="text/css">.ColorScheme-Text {
        color:#31363b;
      }
      .ColorScheme-Background {
        color:#eff0f1;
      }
      .ColorScheme-Highlight {
        color:#3daee9;
      }
      .ColorScheme-ViewText {
        color:#31363b;
      }
      .ColorScheme-ViewBackground {
        color:#fcfcfc;
      }
      .ColorScheme-ViewHover {
        color:#93cee9;
      }
      .ColorScheme-ViewFocus{
        color:#3daee9;
      }
      .ColorScheme-ButtonText {
        color:#31363b;
      }
      .ColorScheme-ButtonBackground {
        color:#eff0f1;
      }
      .ColorScheme-ButtonHover {
        color:#93cee9;
      }
      .ColorScheme-ButtonFocus{
        color:#3daee9;
      }</style>
 </defs>
 <g id="22-22-nepomuk">
  <path d="m0 10v22h22v-22z" fill="none"/>
  <path d="m9.4939 13.994c-3.026 0-5.5 2.474-5.5 5.5s2.474 5.5 5.5 5.5a5.46 5.46 0 0 0 3.112-0.975l3.681 3.682a1 1 0 1 0 1.414-1.414l-3.681-3.682a5.46 5.46 0 0 0 0.974-3.111c0-3.026-2.474-5.5-5.5-5.5zm0 1.25a4.25 4.25 0 0 1 4.25 4.25 4.25 4.25 0 0 1-4.25 4.25 4.25 4.25 0 0 1-4.25-4.25 4.25 4.25 0 0 1 4.25-4.25z" color="#000000" fill="#333" font-weight="400" overflow="visible" style="font-feature-settings:normal;font-variant-alternates:normal;font-variant-caps:normal;font-variant-ligatures:normal;font-variant-numeric:normal;font-variant-position:normal;isolation:auto;mix-blend-mode:normal;shape-padding:0;text-decoration-color:#000000;text-decoration-line:none;text-decoration-style:solid;text-indent:0;text-orientation:mixed;text-transform:none;white-space:normal"/>
 </g>
 <g id="nepomuk">
  <path d="m22 0v32h32v-32z" fill="none"/>
  <path d="m29.125 7.1247a9 9 0 0 0 0 12.728 9 9 0 0 0 11.167 1.2347c0.04787 0.06034 0.09056 0.12371 0.14639 0.17954l5.6569 5.6569c0.78347 0.78347 2.045 0.78347 2.8284 0s0.78347-2.045 0-2.8284l-5.6569-5.6569c-0.05536-0.05536-0.11836-0.09748-0.17816-0.14501a9 9 0 0 0-1.2361-11.169 9 9 0 0 0-12.728 0zm1.4142 1.4142a7 7 0 0 1 9.8995 0 7 7 0 0 1 0 9.8995 7 7 0 0 1-9.8995 0 7 7 0 0 1 0-9.8995z" fill="#333" fill-rule="evenodd" style="paint-order:fill markers stroke"/>
 </g>
</svg>
