<?xml version="1.0" encoding="UTF-8" standalone="no"?>
<!-- Created with Inkscape (http://www.inkscape.org/) -->

<svg
   xmlns:dc="http://purl.org/dc/elements/1.1/"
   xmlns:cc="http://creativecommons.org/ns#"
   xmlns:rdf="http://www.w3.org/1999/02/22-rdf-syntax-ns#"
   xmlns:svg="http://www.w3.org/2000/svg"
   xmlns="http://www.w3.org/2000/svg"
   xmlns:sodipodi="http://sodipodi.sourceforge.net/DTD/sodipodi-0.dtd"
   xmlns:inkscape="http://www.inkscape.org/namespaces/inkscape"
   width="22"
   height="22"
   id="svg3869"
   version="1.1"
   inkscape:version="0.48.5 r10040"
   sodipodi:docname="quota.svg"
   viewBox="0 0 22 22">
  <defs
     id="defs3871" />
  <sodipodi:namedview
     id="base"
     pagecolor="#ffffff"
     bordercolor="#666666"
     borderopacity="1.0"
     inkscape:pageopacity="0.0"
     inkscape:pageshadow="2"
     inkscape:zoom="6.363961"
     inkscape:cx="20.954469"
     inkscape:cy="9.2679883"
     inkscape:document-units="px"
     inkscape:current-layer="layer1"
     showgrid="true"
     fit-margin-top="0"
     fit-margin-left="0"
     fit-margin-right="0"
     fit-margin-bottom="0"
     inkscape:window-width="1920"
     inkscape:window-height="998"
     inkscape:window-x="-4"
     inkscape:window-y="0"
     inkscape:window-maximized="1"
     inkscape:showpageshadow="false">
    <inkscape:grid
       type="xygrid"
       id="grid4132" />
    <sodipodi:guide
       position="2,20.000017"
       orientation="18,0"
       id="guide4138" />
    <sodipodi:guide
       position="2,2.0000174"
       orientation="0,18"
       id="guide4140" />
    <sodipodi:guide
       position="20,2.0000174"
       orientation="-18,0"
       id="guide4142" />
    <sodipodi:guide
       position="20,20.000017"
       orientation="0,-18"
       id="guide4144" />
    <sodipodi:guide
       position="3,19.000017"
       orientation="16,0"
       id="guide4146" />
    <sodipodi:guide
       position="3,3.0000174"
       orientation="0,16"
       id="guide4148" />
    <sodipodi:guide
       position="19,19.000017"
       orientation="0,-16"
       id="guide4152" />
  </sodipodi:namedview>
  <metadata
     id="metadata3874">
    <rdf:RDF>
      <cc:Work
         rdf:about="">
        <dc:format>image/svg+xml</dc:format>
        <dc:type
           rdf:resource="http://purl.org/dc/dcmitype/StillImage" />
        <dc:title />
      </cc:Work>
    </rdf:RDF>
  </metadata>
  <g
     inkscape:label="Capa 1"
     inkscape:groupmode="layer"
     id="layer1"
     transform="translate(-326,-534.3622)">
    <g
       id="quota"
       inkscape:label="#g2992">
      <path
         sodipodi:nodetypes="cccccccccccccccccccccc"
         id="rect4127"
         d="m 328.99219,537.3622 v 1 15 h 1 9 v -1 h -9 v -8 h 3 v -0.01 l 0.008,0.01 2,-2 h 8.99219 v 3 h 1 v -6 H 338 l -2,-2 -0.008,0.01 v -0.01 h -6 z"
         style="fill:#4d4d4d;fill-opacity:1;stroke:none"
         inkscape:connector-curvature="0" />
      <path
         id="path4203"
         transform="translate(326,534.3622)"
         d="M 17 12 A 3 1 0 0 0 14 13 L 14 18 A 3 1 0 0 0 17 19 A 3 1 0 0 0 20 18 L 20 13 A 3 1 0 0 0 17 12 z M 17 13 A 3 1 0 0 1 19 13.257812 L 19 13.744141 A 3 1 0 0 1 17 14 A 3 1 0 0 1 15 13.742188 L 15 13.255859 A 3 1 0 0 1 17 13 z M 15 14.744141 A 3 1 0 0 0 17 15 A 3 1 0 0 0 19 14.744141 L 19 15.744141 A 3 1 0 0 1 17 16 A 3 1 0 0 1 15 15.742188 L 15 14.744141 z M 15 16.744141 A 3 1 0 0 0 17 17 A 3 1 0 0 0 19 16.744141 L 19 17.744141 A 3 1 0 0 1 17 18 A 3 1 0 0 1 15 17.742188 L 15 16.744141 z "
         style="opacity:1;fill:#4d4d4d;fill-opacity:1;stroke:none;stroke-opacity:1" />
    </g>
    <g
       transform="translate(30.008,-0.010017)"
       id="quota-missing"
       inkscape:label="#g3039">
      <path
         sodipodi:nodetypes="cccccccccccccccccccccc"
         id="rect4127-2"
         d="m 328.99219,537.3622 v 1 15 h 1 9 v -1 h -9 v -8 h 3 v -0.01 l 0.008,0.01 2,-2 h 8.99219 v 3 h 1 v -6 H 338 l -2,-2 -0.008,0.01 v -0.01 h -6 z"
         style="fill:#4d4d4d;fill-opacity:1;stroke:none"
         inkscape:connector-curvature="0" />
      <path
         inkscape:connector-curvature="0"
         id="path4203-8"
         transform="translate(326,534.3622)"
         d="m 17,12 a 3,1 0 0 0 -3,1 l 0,5 a 3,1 0 0 0 3,1 3,1 0 0 0 3,-1 l 0,-5 a 3,1 0 0 0 -3,-1 z m 0,1 a 3,1 0 0 1 2,0.257812 l 0,0.486329 A 3,1 0 0 1 17,14 3,1 0 0 1 15,13.742188 l 0,-0.486329 A 3,1 0 0 1 17,13 z m -2,1.744141 A 3,1 0 0 0 17,15 3,1 0 0 0 19,14.744141 l 0,1 A 3,1 0 0 1 17,16 3,1 0 0 1 15,15.742188 l 0,-0.998047 z m 0,2 A 3,1 0 0 0 17,17 3,1 0 0 0 19,16.744141 l 0,1 A 3,1 0 0 1 17,18 3,1 0 0 1 15,17.742188 l 0,-0.998047 z"
         style="fill:#4d4d4d;fill-opacity:1;stroke:none" />
      <path
         inkscape:connector-curvature="0"
         id="path4247"
         transform="translate(326,534.3622)"
         d="m 11,9 c -0.55228,0 -1,0.44772 -1,1 0,0.55228 0.44772,4 1,4 0.55228,0 1,-3.44772 1,-4 0,-0.55228 -0.44772,-1 -1,-1 z m 0,6 a 1,1 0 0 0 -1,1 1,1 0 0 0 1,1 1,1 0 0 0 1,-1 1,1 0 0 0 -1,-1 z"
         style="fill:#f47750;fill-opacity:1;stroke:none" />
    </g>
    <g
       transform="translate(56.008,-1.7e-5)"
       id="quota-low"
       inkscape:label="#g3058">
      <path
         sodipodi:nodetypes="cccccccccccccccccccccc"
         id="rect4127-6"
         d="m 328.99219,537.3622 v 1 15 h 1 9 v -1 h -9 v -8 h 3 v -0.01 l 0.008,0.01 2,-2 h 8.99219 v 3 h 1 v -6 H 338 l -2,-2 -0.008,0.01 v -0.01 h -6 z"
         style="fill:#4d4d4d;fill-opacity:1;stroke:none"
         inkscape:connector-curvature="0" />
      <path
         sodipodi:nodetypes="ssssssscccccccccccccc"
         inkscape:connector-curvature="0"
         id="path4203-0"
         transform="translate(326,534.3622)"
         d="m 17,12 c -1.656854,0 -3,0.447715 -3,1 v 5 c 0,0.552285 1.343146,1 3,1 1.656854,0 3,-0.447715 3,-1 v -5 c 0,-0.552285 -1.343146,-1 -3,-1 z m 0,1 c 0.739186,8.7e-4 1.451386,0.09268 2,0.257812 v 0.486329 C 18.450517,13.908567 17.738413,13.999666 17,14 16.260814,13.99913 15.548614,13.907323 15,13.742188 V 13.255859 C 15.549483,13.091433 16.261587,13.000334 17,13 z m -2,1.744141 c 0.549483,0.164426 1.261587,0.255525 2,0.255859 0.738413,-3.34e-4 1.450517,-0.09143 2,-0.255859 v 1 C 18.450517,15.908567 17.738413,15.999666 17,16 16.260814,15.99913 15.548614,15.90732 15,15.742188 z"
         style="fill:#fdbc4b;fill-opacity:1;stroke:none" />
    </g>
    <g
       transform="translate(81.008,-1.7e-5)"
       id="quota-high"
       inkscape:label="#g3075">
      <path
         sodipodi:nodetypes="cccccccccccccccccccccc"
         id="rect4127-1"
         d="m 328.99219,537.3622 v 1 15 h 1 9 v -1 h -9 v -8 h 3 v -0.01 l 0.008,0.01 2,-2 h 8.99219 v 3 h 1 v -6 H 338 l -2,-2 -0.008,0.01 v -0.01 h -6 z"
         style="fill:#4d4d4d;fill-opacity:1;stroke:none"
         inkscape:connector-curvature="0" />
      <path
         sodipodi:nodetypes="sssssssccccccc"
         inkscape:connector-curvature="0"
         id="path4203-2"
         transform="translate(326,534.3622)"
         d="m 17,12 c -1.656854,0 -3,0.447715 -3,1 v 5 c 0,0.552285 1.343146,1 3,1 1.656854,0 3,-0.447715 3,-1 v -5 c 0,-0.552285 -1.343146,-1 -3,-1 z m 0,1 c 0.739186,8.7e-4 1.451386,0.09268 2,0.257812 v 0.486329 C 18.450517,13.908567 17.738413,13.999666 17,14 16.260814,13.99913 15.548614,13.907323 15,13.742188 V 13.255859 C 15.549483,13.091433 16.261587,13.000334 17,13 z"
         style="fill:#e74c3c;fill-opacity:1;stroke:none" />
    </g>
    <g
       transform="translate(106.008,-1.7e-5)"
       id="quota-critical"
       inkscape:label="#g3092">
      <path
         sodipodi:nodetypes="cccccccccccccccccccccc"
         id="rect4127-65"
         d="m 328.99219,537.3622 v 1 15 h 1 9 v -1 h -9 v -8 h 3 v -0.01 l 0.008,0.01 2,-2 h 8.99219 v 3 h 1 v -6 H 338 l -2,-2 -0.008,0.01 v -0.01 h -6 z"
         style="fill:#4d4d4d;fill-opacity:1;stroke:none"
         inkscape:connector-curvature="0" />
      <path
         sodipodi:nodetypes="sssssssccccccc"
         inkscape:connector-curvature="0"
         id="path4203-5"
         transform="translate(326,534.3622)"
         d="m 17,12 c -1.656854,0 -3,0.447715 -3,1 v 5 c 0,0.552285 1.343146,1 3,1 1.656854,0 3,-0.447715 3,-1 v -5 c 0,-0.552285 -1.343146,-1 -3,-1 z m 0,1 c 0.739186,8.7e-4 1.451386,0.09268 2,0.257812 v 0.486329 C 18.450517,13.908567 17.738413,13.999666 17,14 16.260814,13.99913 15.548614,13.907323 15,13.742188 V 13.255859 C 15.549483,13.091433 16.261587,13.000334 17,13 z"
         style="fill:#e74c3c;fill-opacity:1;stroke:none" />
      <path
         id="path4247-9"
         d="m 337,543.3622 c -0.55228,0 -1,0.44772 -1,1 0,0.55228 0.44772,4 1,4 0.55228,0 1,-3.44772 1,-4 0,-0.55228 -0.44772,-1 -1,-1 z m 0,6 a 1,1 0 0 0 -1,1 1,1 0 0 0 1,1 1,1 0 0 0 1,-1 1,1 0 0 0 -1,-1 z"
         style="fill:#e74c3c;fill-opacity:1;stroke:none"
         inkscape:connector-curvature="0" />
    </g>
  </g>
</svg>
